<svg xmlns="http://www.w3.org/2000/svg" viewBox="0 0 64 64" width="64" height="64" role="img" aria-label="Notifications">
  <defs>
    <linearGradient id="bellBody" x1="0" y1="0" x2="0" y2="1">
      <stop offset="0%" stop-color="#FFD9A8"/>
      <stop offset="100%" stop-color="#FF9933"/>
    </linearGradient>
    <radialGradient id="bellBadge" cx="0.4" cy="0.4" r="0.6">
      <stop offset="0%" stop-color="#FF8A8A"/>
      <stop offset="100%" stop-color="#B33A3A"/>
    </radialGradient>
    <filter id="bellShadow" x="-20%" y="-10%" width="140%" height="140%">
      <feGaussianBlur in="SourceAlpha" stdDeviation="1.3"/>
      <feOffset dy="1.6"/>
      <feComponentTransfer><feFuncA type="linear" slope="0.4"/></feComponentTransfer>
      <feMerge><feMergeNode/><feMergeNode in="SourceGraphic"/></feMerge>
    </filter>
  </defs>
  <ellipse cx="32" cy="58" rx="14" ry="2" fill="#1A3380" opacity="0.18"/>
  <g filter="url(#bellShadow)">
    <path d="M14 44 C14 44, 18 42, 18 32 C18 22, 24 16, 32 16 C40 16, 46 22, 46 32 C46 42, 50 44, 50 44 L50 48 L14 48 Z" fill="url(#bellBody)"/>
    <path d="M27 50 C27 53, 29 55, 32 55 C35 55, 37 53, 37 50 Z" fill="#9A4F0B"/>
    <ellipse cx="26" cy="26" rx="3" ry="6" fill="#FFF8F0" opacity="0.45"/>
    <circle cx="46" cy="20" r="8" fill="url(#bellBadge)"/>
    <circle cx="46" cy="20" r="3" fill="#FFF8F0" opacity="0.9"/>
  </g>
</svg>
