<svg xmlns="http://www.w3.org/2000/svg" viewBox="0 0 64 64" width="64" height="64" role="img" aria-label="Comment">
  <defs>
    <linearGradient id="cmtBody" x1="0" y1="0" x2="0" y2="1">
      <stop offset="0%" stop-color="#FFFFFF"/>
      <stop offset="100%" stop-color="#F4F0E8"/>
    </linearGradient>
    <linearGradient id="cmtTail" x1="0" y1="0" x2="0" y2="1">
      <stop offset="0%" stop-color="#1E3A8A"/>
      <stop offset="100%" stop-color="#0A1A3D"/>
    </linearGradient>
    <filter id="cmtShadow" x="-20%" y="-10%" width="140%" height="140%">
      <feGaussianBlur in="SourceAlpha" stdDeviation="1.4"/>
      <feOffset dy="2"/>
      <feComponentTransfer><feFuncA type="linear" slope="0.4"/></feComponentTransfer>
      <feMerge><feMergeNode/><feMergeNode in="SourceGraphic"/></feMerge>
    </filter>
  </defs>
  <ellipse cx="32" cy="58" rx="14" ry="2" fill="#1A3380" opacity="0.18"/>
  <g filter="url(#cmtShadow)">
    <path d="M10 12 L54 12 C56 12, 58 14, 58 16 L58 40 C58 42, 56 44, 54 44 L28 44 L18 54 L20 44 L10 44 C8 44, 6 42, 6 40 L6 16 C6 14, 8 12, 10 12 Z" fill="url(#cmtBody)"/>
    <path d="M28 44 L18 54 L20 44 Z" fill="url(#cmtTail)"/>
    <circle cx="22" cy="28" r="2.4" fill="#FF9933"/>
    <circle cx="32" cy="28" r="2.4" fill="#1E3A8A"/>
    <circle cx="42" cy="28" r="2.4" fill="#FF9933"/>
  </g>
</svg>
