<svg xmlns="http://www.w3.org/2000/svg" viewBox="0 0 64 64" width="64" height="64" role="img" aria-label="Trust and safety"><defs><linearGradient id="shBody" x1="0" y1="0" x2="0" y2="1"><stop offset="0%" stop-color="#5374AB"/><stop offset="100%" stop-color="#0A1A3D"/></linearGradient><linearGradient id="shBowl" x1="0" y1="0" x2="0" y2="1"><stop offset="0%" stop-color="#E06060"/><stop offset="100%" stop-color="#7A1F1F"/></linearGradient><radialGradient id="shGlow" cx="0.5" cy="0.5" r="0.5"><stop offset="0%" stop-color="#FFD9A8" stop-opacity="0.8"/><stop offset="100%" stop-color="#FFD9A8" stop-opacity="0"/></radialGradient><filter id="shShadow" x="-20%" y="-10%" width="140%" height="140%"><feGaussianBlur in="SourceAlpha" stdDeviation="1.4"/><feOffset dy="2"/><feComponentTransfer><feFuncA type="linear" slope="0.45"/></feComponentTransfer><feMerge><feMergeNode/><feMergeNode in="SourceGraphic"/></feMerge></filter></defs><ellipse cx="32" cy="58" rx="15" ry="2" fill="#1A3380" opacity="0.18"/><g filter="url(#shShadow)"><path d="M32 5 L53 13 L53 31 C53 44 43 53 32 58 C21 53 11 44 11 31 L11 13 Z" fill="url(#shBody)"/><path d="M32 10 L48 16 L48 31 C48 41 40 48 32 52 C24 48 16 41 16 31 L16 16 Z" fill="none" stroke="#C9A227" stroke-width="2.4" opacity="0.9"/><circle cx="32" cy="28" r="7" fill="url(#shGlow)"/><path d="M24 37 C24 42 28 45 32 45 C36 45 40 42 40 37 Z" fill="url(#shBowl)"/><path d="M32 26 C34 30 35.2 31.2 35.2 33.6 A3.2 3.2 0 0 1 28.8 33.6 C28.8 31.2 30 30 32 26 Z" fill="#FFD9A8"/><ellipse cx="24" cy="20" rx="5" ry="3.4" fill="#FFF8F0" opacity="0.28"/></g></svg>
